<svg width="40" height="40" viewBox="0 0 40 40" fill="none" xmlns="http://www.w3.org/2000/svg">
<path fill-rule="evenodd" clip-rule="evenodd" d="M19.9999 -0.00011301C31.0456 -0.00011301 40 8.95416 40 20C40 31.0457 31.0456 40 19.9999 40C8.95429 40 -2.69413e-05 31.0457 -2.69413e-05 20C-2.69413e-05 8.95416 8.95429 -0.00011301 19.9999 -0.00011301Z" fill="#94C4F7"/>
<path d="M26.322 14.74C25.626 13.528 24.672 12.574 23.46 11.878C22.26 11.182 20.94 10.834 19.5 10.834C18.072 10.834 16.758 11.182 15.558 11.878C14.334 12.586 13.374 13.546 12.678 14.758C11.982 15.958 11.634 17.278 11.634 18.718C11.634 20.146 11.982 21.46 12.678 22.66C13.386 23.86 14.34 24.814 15.54 25.522C16.776 26.23 18.102 26.584 19.518 26.584C20.934 26.584 22.248 26.23 23.46 25.522C24.672 24.814 25.626 23.86 26.322 22.66C27.018 21.46 27.366 20.146 27.366 18.718C27.366 17.278 27.018 15.952 26.322 14.74ZM19.5 12.13C21.072 12.13 22.47 12.634 23.694 13.642C22.962 14.578 21.888 15.34 20.472 15.928C19.692 14.536 18.834 13.342 17.898 12.346C18.438 12.202 18.972 12.13 19.5 12.13ZM14.388 14.614C14.964 13.882 15.678 13.294 16.53 12.85C17.49 13.81 18.366 14.992 19.158 16.396C17.598 16.876 15.936 17.116 14.172 17.116C13.8 17.116 13.458 17.104 13.146 17.08C13.386 16.168 13.8 15.346 14.388 14.614ZM12.93 18.7C12.93 18.64 12.936 18.586 12.948 18.538V18.376C13.08 18.388 13.386 18.394 13.866 18.394C15.966 18.394 17.916 18.106 19.716 17.53C19.812 17.722 19.956 18.028 20.148 18.448L20.184 18.52C19.14 18.76 18.072 19.33 16.98 20.23C15.888 21.118 15.09 22.054 14.586 23.038C13.482 21.766 12.93 20.32 12.93 18.7ZM19.5 25.27C18.024 25.27 16.686 24.808 15.486 23.884C15.954 22.96 16.686 22.066 17.682 21.202C18.678 20.338 19.65 19.81 20.598 19.618C21.198 21.31 21.606 23.044 21.822 24.82C21.066 25.12 20.292 25.27 19.5 25.27ZM25.08 22.156C24.54 23.008 23.862 23.692 23.046 24.208C22.878 22.672 22.518 21.076 21.966 19.42C22.602 19.372 23.256 19.348 23.928 19.348C24.648 19.348 25.344 19.372 26.016 19.42C25.932 20.368 25.62 21.28 25.08 22.156ZM24.108 18.214C23.196 18.214 22.35 18.25 21.57 18.322C21.39 17.866 21.21 17.44 21.03 17.044C22.674 16.312 23.826 15.448 24.486 14.452C25.446 15.58 25.962 16.852 26.034 18.268C25.41 18.232 24.768 18.214 24.108 18.214Z" fill="white"/>
</svg>
