<svg width="40" height="40" viewBox="0 0 40 40" fill="none" xmlns="http://www.w3.org/2000/svg">
<path fill-rule="evenodd" clip-rule="evenodd" d="M19.9999 -0.00011301C31.0456 -0.00011301 40 8.95416 40 20C40 31.0457 31.0456 40 19.9999 40C8.95429 40 -2.69413e-05 31.0457 -2.69413e-05 20C-2.69413e-05 8.95416 8.95429 -0.00011301 19.9999 -0.00011301Z" fill="#94C4F7"/>
<path d="M23.154 15.928H20.67V14.29C20.67 14.014 20.748 13.81 20.904 13.678C21.024 13.582 21.174 13.534 21.354 13.534H23.118V10.834L20.688 10.816C19.86 10.816 19.176 11.008 18.636 11.392C18.192 11.704 17.862 12.136 17.646 12.688C17.478 13.132 17.394 13.612 17.394 14.128V15.928H15.846V18.7H17.394V26.566H20.67V18.7H22.866L23.154 15.928Z" fill="white"/>
</svg>
