<svg width="8" height="9" viewBox="0 0 8 9" fill="none" xmlns="http://www.w3.org/2000/svg">
<path d="M7.13 1.53C6.43667 1.40333 5.4 1.21333 4.02 0.959999L1.66 0.53L1.59 0.169999C1.59 0.156666 1.58333 0.146666 1.57 0.14C1.55667 0.126666 1.54333 0.123333 1.53 0.129999L0.91 0.24C0.896667 0.24 0.883333 0.246666 0.87 0.26C0.863333 0.273333 0.863333 0.286666 0.87 0.3L2.4 8.84C2.4 8.84667 2.40667 8.85333 2.42 8.86C2.43333 8.87333 2.44667 8.88 2.46 8.88L3.08 8.76C3.09333 8.76 3.10333 8.75333 3.11 8.74C3.12333 8.72667 3.12667 8.71333 3.12 8.7L2.51 5.31L7.13 1.53Z" fill="white"/>
</svg>
