<svg width="40" height="40" viewBox="0 0 40 40" fill="none" xmlns="http://www.w3.org/2000/svg">
<path fill-rule="evenodd" clip-rule="evenodd" d="M19.9999 -0.00011301C31.0457 -0.00011301 40 8.95416 40 19.9999C40 31.0455 31.0457 40 19.9999 40C8.95421 40 -0.00011301 31.0455 -0.00011301 19.9999C-0.00011301 8.95416 8.95421 -0.00011301 19.9999 -0.00011301Z" fill="#FA6C48"/>
<path d="M11.7708 12.4375C11.9097 13.4375 12.1319 14.9444 12.4375 16.9583C12.9792 20.7083 13.3819 23.5278 13.6458 25.4167C13.6736 25.5833 13.7222 25.6944 13.7917 25.75C13.8611 25.8194 13.9722 25.8472 14.125 25.8333H26.5C26.6944 25.8333 26.8264 25.8125 26.8958 25.7708C27.0069 25.7292 27.0694 25.6111 27.0833 25.4167C27.1111 25.0972 27.1806 24.6319 27.2917 24.0208C27.3611 23.5903 27.4097 23.2708 27.4375 23.0625L27.7917 20.8125L27.0625 20.7917C26.4097 20.7639 25.9306 20.7292 25.625 20.6875C23.4722 20.3125 21.7569 19.1389 20.4792 17.1667L20.4583 17.125C20.3472 16.9722 20.2569 16.8611 20.1875 16.7917C20.0764 16.6806 19.9375 16.6042 19.7708 16.5625C19.4792 16.4931 19.2639 16.3194 19.125 16.0417C19 15.7639 18.9653 15.4514 19.0208 15.1042C19.0625 14.8125 19.1875 14.5833 19.3958 14.4167C19.6042 14.2361 19.8611 14.1389 20.1667 14.125C20.6111 14.1111 20.9444 14.2639 21.1667 14.5833C21.4028 14.9028 21.4792 15.3056 21.3958 15.7917C21.3681 15.875 21.3611 15.9722 21.375 16.0833C21.3889 16.1806 21.4167 16.2639 21.4583 16.3333C22.2083 17.5 23.0764 18.3472 24.0625 18.875C25.1042 19.4306 26.2917 19.6458 27.625 19.5208C27.7778 19.5069 27.8819 19.4722 27.9375 19.4167C28.0069 19.3472 28.0556 19.2431 28.0833 19.1042C28.1667 18.5208 28.2986 17.6528 28.4792 16.5C28.6597 15.3472 28.7917 14.4861 28.875 13.9167C28.9306 13.5694 29.0139 13.0486 29.125 12.3542L29.1458 12.125H11.7708V12.2292C11.7569 12.3264 11.7569 12.3958 11.7708 12.4375ZM29.5208 10.3542C29.4792 9.92361 29.2361 9.67361 28.7917 9.60417C28.6667 9.59028 28.4653 9.58334 28.1875 9.58334H12.6875C12.4097 9.58334 12.2014 9.59028 12.0625 9.60417C11.6042 9.65972 11.3542 9.91667 11.3125 10.375C11.2986 10.5972 11.3403 10.7847 11.4375 10.9375C11.5486 11.0903 11.7083 11.2014 11.9167 11.2708C12.0833 11.3264 12.2708 11.3542 12.4792 11.3542H28.3333C28.5694 11.3542 28.7708 11.3264 28.9375 11.2708C29.1597 11.2014 29.3194 11.0903 29.4167 10.9375C29.5139 10.7708 29.5486 10.5764 29.5208 10.3542Z" fill="white"/>
</svg>

