<svg width="190" height="40" viewBox="0 0 190 40" fill="none" xmlns="http://www.w3.org/2000/svg">
<path fill-rule="evenodd" clip-rule="evenodd" d="M19.9999 -0.00011301C31.0456 -0.00011301 40 8.95416 40 20C40 31.0457 31.0456 40 19.9999 40C8.95429 40 -2.69413e-05 31.0457 -2.69413e-05 20C-2.69413e-05 8.95416 8.95429 -0.00011301 19.9999 -0.00011301Z" fill="#94C4F7"/>
<path d="M23.154 15.928H20.67V14.29C20.67 14.014 20.748 13.81 20.904 13.678C21.024 13.582 21.174 13.534 21.354 13.534H23.118V10.834L20.688 10.816C19.86 10.816 19.176 11.008 18.636 11.392C18.192 11.704 17.862 12.136 17.646 12.688C17.478 13.132 17.394 13.612 17.394 14.128V15.928H15.846V18.7H17.394V26.566H20.67V18.7H22.866L23.154 15.928Z" fill="white"/>
<path fill-rule="evenodd" clip-rule="evenodd" d="M70 -0.00011301C81.0457 -0.00011301 90 8.95416 90 20C90 31.0457 81.0457 40 70 40C58.9542 40 49.9999 31.0457 49.9999 20C49.9999 8.95416 58.9542 -0.00011301 70 -0.00011301Z" fill="#244263"/>
<path d="M77.884 12.804C77.32 13.056 76.696 13.23 76.012 13.326C76.348 13.134 76.636 12.882 76.876 12.57C77.128 12.258 77.314 11.91 77.434 11.526C76.822 11.91 76.138 12.174 75.382 12.318C75.094 11.994 74.74 11.742 74.32 11.562C73.912 11.382 73.48 11.292 73.024 11.292C72.436 11.292 71.896 11.442 71.404 11.742C70.912 12.03 70.522 12.42 70.234 12.912C69.946 13.404 69.802 13.944 69.802 14.532C69.802 14.82 69.826 15.066 69.874 15.27C68.554 15.198 67.312 14.862 66.148 14.262C65.008 13.674 64.03 12.882 63.214 11.886C62.926 12.402 62.782 12.942 62.782 13.506C62.782 14.058 62.908 14.574 63.16 15.054C63.424 15.522 63.778 15.906 64.222 16.206C63.694 16.194 63.208 16.056 62.764 15.792V15.846C62.764 16.626 63.004 17.31 63.484 17.898C63.976 18.486 64.6 18.858 65.356 19.014C65.092 19.086 64.804 19.122 64.492 19.122C64.276 19.122 64.078 19.104 63.898 19.068C64.102 19.716 64.48 20.25 65.032 20.67C65.584 21.078 66.208 21.288 66.904 21.3C66.352 21.744 65.728 22.086 65.032 22.326C64.348 22.566 63.634 22.686 62.89 22.686C62.734 22.686 62.494 22.674 62.17 22.65H62.116C63.616 23.61 65.272 24.09 67.084 24.09C68.512 24.09 69.826 23.814 71.026 23.262C72.13 22.746 73.09 22.026 73.906 21.102C74.662 20.238 75.25 19.254 75.67 18.15C76.066 17.082 76.264 16.002 76.264 14.91V14.478C76.9 14.022 77.44 13.464 77.884 12.804Z" fill="white"/>
<path fill-rule="evenodd" clip-rule="evenodd" d="M120 -0.00011301C131.046 -0.00011301 140 8.95416 140 20C140 31.0457 131.046 40 120 40C108.954 40 99.9999 31.0457 99.9999 20C99.9999 8.95416 108.954 -0.00011301 120 -0.00011301Z" fill="#FFA27E"/>
<path d="M120.292 26.584H118.708C117.568 26.584 116.506 26.296 115.522 25.72C114.574 25.156 113.824 24.4 113.272 23.452C112.696 22.468 112.408 21.406 112.408 20.266V12.4C112.408 11.968 112.558 11.596 112.858 11.284C113.17 10.972 113.542 10.816 113.974 10.816C114.418 10.816 114.79 10.972 115.09 11.284C115.402 11.596 115.558 11.968 115.558 12.4V20.266C115.558 20.842 115.696 21.37 115.972 21.85C116.26 22.33 116.644 22.714 117.124 23.002C117.616 23.278 118.144 23.416 118.708 23.416H120.292C120.856 23.416 121.378 23.296 121.858 23.056C122.35 22.804 122.734 22.468 123.01 22.048C123.298 21.628 123.442 21.172 123.442 20.68C123.442 20.176 123.358 19.702 123.19 19.258C123.046 18.85 122.848 18.526 122.596 18.286C122.356 18.034 122.11 17.908 121.858 17.908H118.708C118.276 17.908 117.904 17.758 117.592 17.458C117.292 17.146 117.142 16.774 117.142 16.342C117.142 15.898 117.292 15.526 117.592 15.226C117.904 14.914 118.276 14.758 118.708 14.758H121.858C122.71 14.758 123.508 15.028 124.252 15.568C124.96 16.084 125.524 16.792 125.944 17.692C126.376 18.604 126.592 19.594 126.592 20.662C126.592 21.73 126.304 22.726 125.728 23.65C125.176 24.538 124.426 25.246 123.478 25.774C122.494 26.314 121.432 26.584 120.292 26.584Z" fill="white"/>
<path fill-rule="evenodd" clip-rule="evenodd" d="M170 -0.00011301C181.046 -0.00011301 190 8.95416 190 20C190 31.0457 181.046 40 170 40C158.954 40 150 31.0457 150 20C150 8.95416 158.954 -0.00011301 170 -0.00011301Z" fill="#94C4F7"/>
<path d="M176.322 14.74C175.626 13.528 174.672 12.574 173.46 11.878C172.26 11.182 170.94 10.834 169.5 10.834C168.072 10.834 166.758 11.182 165.558 11.878C164.334 12.586 163.374 13.546 162.678 14.758C161.982 15.958 161.634 17.278 161.634 18.718C161.634 20.146 161.982 21.46 162.678 22.66C163.386 23.86 164.34 24.814 165.54 25.522C166.776 26.23 168.102 26.584 169.518 26.584C170.934 26.584 172.248 26.23 173.46 25.522C174.672 24.814 175.626 23.86 176.322 22.66C177.018 21.46 177.366 20.146 177.366 18.718C177.366 17.278 177.018 15.952 176.322 14.74ZM169.5 12.13C171.072 12.13 172.47 12.634 173.694 13.642C172.962 14.578 171.888 15.34 170.472 15.928C169.692 14.536 168.834 13.342 167.898 12.346C168.438 12.202 168.972 12.13 169.5 12.13ZM164.388 14.614C164.964 13.882 165.678 13.294 166.53 12.85C167.49 13.81 168.366 14.992 169.158 16.396C167.598 16.876 165.936 17.116 164.172 17.116C163.8 17.116 163.458 17.104 163.146 17.08C163.386 16.168 163.8 15.346 164.388 14.614ZM162.93 18.7C162.93 18.64 162.936 18.586 162.948 18.538V18.376C163.08 18.388 163.386 18.394 163.866 18.394C165.966 18.394 167.916 18.106 169.716 17.53C169.812 17.722 169.956 18.028 170.148 18.448L170.184 18.52C169.14 18.76 168.072 19.33 166.98 20.23C165.888 21.118 165.09 22.054 164.586 23.038C163.482 21.766 162.93 20.32 162.93 18.7ZM169.5 25.27C168.024 25.27 166.686 24.808 165.486 23.884C165.954 22.96 166.686 22.066 167.682 21.202C168.678 20.338 169.65 19.81 170.598 19.618C171.198 21.31 171.606 23.044 171.822 24.82C171.066 25.12 170.292 25.27 169.5 25.27ZM175.08 22.156C174.54 23.008 173.862 23.692 173.046 24.208C172.878 22.672 172.518 21.076 171.966 19.42C172.602 19.372 173.256 19.348 173.928 19.348C174.648 19.348 175.344 19.372 176.016 19.42C175.932 20.368 175.62 21.28 175.08 22.156ZM174.108 18.214C173.196 18.214 172.35 18.25 171.57 18.322C171.39 17.866 171.21 17.44 171.03 17.044C172.674 16.312 173.826 15.448 174.486 14.452C175.446 15.58 175.962 16.852 176.034 18.268C175.41 18.232 174.768 18.214 174.108 18.214Z" fill="white"/>
</svg>
