<svg width="229" height="22" viewBox="0 0 229 22" fill="none" xmlns="http://www.w3.org/2000/svg">
<path d="M9.872 6.904H6.56V4.72C6.56 4.352 6.664 4.08 6.872 3.904C7.032 3.776 7.232 3.712 7.472 3.712H9.824V0.111999L6.584 0.0879989C5.48 0.0879989 4.568 0.343999 3.848 0.855999C3.256 1.272 2.816 1.848 2.528 2.584C2.304 3.176 2.192 3.816 2.192 4.504V6.904H0.128V10.6H2.192V21.088H6.56V10.6H9.488L9.872 6.904ZM87.512 4.072C86.76 4.408 85.928 4.64 85.016 4.768C85.464 4.512 85.848 4.176 86.168 3.76C86.504 3.344 86.752 2.88 86.912 2.368C86.096 2.88 85.184 3.232 84.176 3.424C83.792 2.992 83.32 2.656 82.76 2.416C82.216 2.176 81.64 2.056 81.032 2.056C80.248 2.056 79.528 2.256 78.872 2.656C78.216 3.04 77.696 3.56 77.312 4.216C76.928 4.872 76.736 5.592 76.736 6.376C76.736 6.76 76.768 7.088 76.832 7.36C75.072 7.264 73.416 6.816 71.864 6.016C70.344 5.232 69.04 4.176 67.952 2.848C67.568 3.536 67.376 4.256 67.376 5.008C67.376 5.744 67.544 6.432 67.88 7.072C68.232 7.696 68.704 8.208 69.296 8.608C68.592 8.592 67.944 8.408 67.352 8.056V8.128C67.352 9.168 67.672 10.08 68.312 10.864C68.968 11.648 69.8 12.144 70.808 12.352C70.456 12.448 70.072 12.496 69.656 12.496C69.368 12.496 69.104 12.472 68.864 12.424C69.136 13.288 69.64 14 70.376 14.56C71.112 15.104 71.944 15.384 72.872 15.4C72.136 15.992 71.304 16.448 70.376 16.768C69.464 17.088 68.512 17.248 67.52 17.248C67.312 17.248 66.992 17.232 66.56 17.2H66.488C68.488 18.48 70.696 19.12 73.112 19.12C75.016 19.12 76.768 18.752 78.368 18.016C79.84 17.328 81.12 16.368 82.208 15.136C83.216 13.984 84 12.672 84.56 11.2C85.088 9.776 85.352 8.336 85.352 6.88V6.304C86.2 5.696 86.92 4.952 87.512 4.072ZM150.056 21.112H147.944C146.424 21.112 145.008 20.728 143.696 19.96C142.432 19.208 141.432 18.2 140.696 16.936C139.928 15.624 139.544 14.208 139.544 12.688V2.2C139.544 1.624 139.744 1.128 140.144 0.711999C140.56 0.295999 141.056 0.0879989 141.632 0.0879989C142.224 0.0879989 142.72 0.295999 143.12 0.711999C143.536 1.128 143.744 1.624 143.744 2.2V12.688C143.744 13.456 143.928 14.16 144.296 14.8C144.68 15.44 145.192 15.952 145.832 16.336C146.488 16.704 147.192 16.888 147.944 16.888H150.056C150.808 16.888 151.504 16.728 152.144 16.408C152.8 16.072 153.312 15.624 153.68 15.064C154.064 14.504 154.256 13.896 154.256 13.24C154.256 12.568 154.144 11.936 153.92 11.344C153.728 10.8 153.464 10.368 153.128 10.048C152.808 9.712 152.48 9.544 152.144 9.544H147.944C147.368 9.544 146.872 9.344 146.456 8.944C146.056 8.528 145.856 8.032 145.856 7.456C145.856 6.864 146.056 6.368 146.456 5.968C146.872 5.552 147.368 5.344 147.944 5.344H152.144C153.28 5.344 154.344 5.704 155.336 6.424C156.28 7.112 157.032 8.056 157.592 9.256C158.168 10.472 158.456 11.792 158.456 13.216C158.456 14.64 158.072 15.968 157.304 17.2C156.568 18.384 155.568 19.328 154.304 20.032C152.992 20.752 151.576 21.112 150.056 21.112ZM230.096 5.32C229.168 3.704 227.896 2.432 226.28 1.504C224.68 0.575999 222.92 0.111999 221 0.111999C219.096 0.111999 217.344 0.575999 215.744 1.504C214.112 2.448 212.832 3.728 211.904 5.344C210.976 6.944 210.512 8.704 210.512 10.624C210.512 12.528 210.976 14.28 211.904 15.88C212.848 17.48 214.12 18.752 215.72 19.696C217.368 20.64 219.136 21.112 221.024 21.112C222.912 21.112 224.664 20.64 226.28 19.696C227.896 18.752 229.168 17.48 230.096 15.88C231.024 14.28 231.488 12.528 231.488 10.624C231.488 8.704 231.024 6.936 230.096 5.32ZM221 1.84C223.096 1.84 224.96 2.512 226.592 3.856C225.616 5.104 224.184 6.12 222.296 6.904C221.256 5.048 220.112 3.456 218.864 2.128C219.584 1.936 220.296 1.84 221 1.84ZM214.184 5.152C214.952 4.176 215.904 3.392 217.04 2.8C218.32 4.08 219.488 5.656 220.544 7.528C218.464 8.168 216.248 8.488 213.896 8.488C213.4 8.488 212.944 8.472 212.528 8.44C212.848 7.224 213.4 6.128 214.184 5.152ZM212.24 10.6C212.24 10.52 212.248 10.448 212.264 10.384V10.168C212.44 10.184 212.848 10.192 213.488 10.192C216.288 10.192 218.888 9.808 221.288 9.04C221.416 9.296 221.608 9.704 221.864 10.264L221.912 10.36C220.52 10.68 219.096 11.44 217.64 12.64C216.184 13.824 215.12 15.072 214.448 16.384C212.976 14.688 212.24 12.76 212.24 10.6ZM221 19.36C219.032 19.36 217.248 18.744 215.648 17.512C216.272 16.28 217.248 15.088 218.576 13.936C219.904 12.784 221.2 12.08 222.464 11.824C223.264 14.08 223.808 16.392 224.096 18.76C223.088 19.16 222.056 19.36 221 19.36ZM228.44 15.208C227.72 16.344 226.816 17.256 225.728 17.944C225.504 15.896 225.024 13.768 224.288 11.56C225.136 11.496 226.008 11.464 226.904 11.464C227.864 11.464 228.792 11.496 229.688 11.56C229.576 12.824 229.16 14.04 228.44 15.208ZM227.144 9.952C225.928 9.952 224.8 10 223.76 10.096C223.52 9.488 223.28 8.92 223.04 8.392C225.232 7.416 226.768 6.264 227.648 4.936C228.928 6.44 229.616 8.136 229.712 10.024C228.88 9.976 228.024 9.952 227.144 9.952Z" fill="white"/>
</svg>
