<svg width="40" height="40" viewBox="0 0 40 40" fill="none" xmlns="http://www.w3.org/2000/svg">
<path fill-rule="evenodd" clip-rule="evenodd" d="M20 -0.00011301C31.0456 -0.00011301 39.9999 8.95416 39.9999 20C39.9999 31.0457 31.0456 40 20 40C8.95425 40 -6.99759e-05 31.0457 -6.99759e-05 20C-6.99759e-05 8.95416 8.95425 -0.00011301 20 -0.00011301Z" fill="#FFA27E"/>
<path d="M20.292 26.584H18.708C17.568 26.584 16.506 26.296 15.522 25.72C14.574 25.156 13.824 24.4 13.272 23.452C12.696 22.468 12.408 21.406 12.408 20.266V12.4C12.408 11.968 12.558 11.596 12.858 11.284C13.17 10.972 13.542 10.816 13.974 10.816C14.418 10.816 14.79 10.972 15.09 11.284C15.402 11.596 15.558 11.968 15.558 12.4V20.266C15.558 20.842 15.696 21.37 15.972 21.85C16.26 22.33 16.644 22.714 17.124 23.002C17.616 23.278 18.144 23.416 18.708 23.416H20.292C20.856 23.416 21.378 23.296 21.858 23.056C22.35 22.804 22.734 22.468 23.01 22.048C23.298 21.628 23.442 21.172 23.442 20.68C23.442 20.176 23.358 19.702 23.19 19.258C23.046 18.85 22.848 18.526 22.596 18.286C22.356 18.034 22.11 17.908 21.858 17.908H18.708C18.276 17.908 17.904 17.758 17.592 17.458C17.292 17.146 17.142 16.774 17.142 16.342C17.142 15.898 17.292 15.526 17.592 15.226C17.904 14.914 18.276 14.758 18.708 14.758H21.858C22.71 14.758 23.508 15.028 24.252 15.568C24.96 16.084 25.524 16.792 25.944 17.692C26.376 18.604 26.592 19.594 26.592 20.662C26.592 21.73 26.304 22.726 25.728 23.65C25.176 24.538 24.426 25.246 23.478 25.774C22.494 26.314 21.432 26.584 20.292 26.584Z" fill="white"/>
</svg>
