<svg width="8" height="9" viewBox="0 0 8 9" fill="none" xmlns="http://www.w3.org/2000/svg">
<path d="M6.66 3.97V2.77C6.66 2.29 6.54 1.84667 6.3 1.44C6.06667 1.03333 5.74667 0.713333 5.34 0.48C4.93333 0.24 4.49 0.12 4.01 0.12C3.53 0.12 3.08333 0.24 2.67 0.48C2.27 0.713333 1.95 1.03333 1.71 1.44C1.47667 1.84667 1.36 2.29 1.36 2.77V3.97H0.79V8.88H7.22V3.97H6.66ZM2.35 2.77C2.35 2.47 2.42333 2.19333 2.57 1.94C2.72333 1.68667 2.92667 1.48667 3.18 1.34C3.43333 1.19333 3.71 1.12 4.01 1.12C4.31 1.12 4.58667 1.19333 4.84 1.34C5.09333 1.48667 5.29333 1.68667 5.44 1.94C5.58667 2.19333 5.66 2.47 5.66 2.77V3.97H2.35V2.77ZM4.46 7.53H3.55L3.69 6.18C3.60333 6.12667 3.53333 6.05667 3.48 5.97C3.43333 5.88333 3.41 5.78667 3.41 5.68C3.41 5.51333 3.46667 5.37333 3.58 5.26C3.7 5.14 3.84333 5.08 4.01 5.08C4.17667 5.08 4.31667 5.14 4.43 5.26C4.54333 5.37333 4.6 5.51333 4.6 5.68C4.6 5.78667 4.57333 5.88333 4.52 5.97C4.47333 6.05667 4.40667 6.12667 4.32 6.18L4.46 7.53Z" fill="white"/>
</svg>
