<svg width="392" height="58" viewBox="0 0 392 58" fill="none" xmlns="http://www.w3.org/2000/svg">
<path d="M54.6177 -16.4487H38.0161V56H16.7759V-16.4487H0.174316V-33.2334H54.6177V-16.4487ZM122.904 -16.6929H100.016V1.3125H121.256V17.9141H100.016V39.2764H122.904V56H78.6533V-33.2334H122.904V-16.6929ZM211.026 56H189.542L184.598 34.1494H166.593L161.649 56H140.226L162.381 -33.5996H188.81L211.026 56ZM180.936 17.2427L175.626 -6.25586C174.975 -3.12272 173.246 4.71012 170.438 17.2427H180.936ZM317.032 56H296.524V6.07324L285.416 56H263.199L252.091 6.37842V56H231.949V-33.2334H261.673L274.308 25.1772C282.242 -11.2404 286.474 -30.7106 287.003 -33.2334H317.032V56ZM363.895 40.5581C366.052 40.5581 367.7 39.846 368.839 38.4219C369.978 36.957 370.548 35.187 370.548 33.1118C370.548 30.9959 370.243 29.2056 369.632 27.7407C369.022 26.2352 368.127 24.8517 366.947 23.5903C365.767 22.3289 364.648 21.2913 363.59 20.4775C362.573 19.623 361.291 18.6465 359.745 17.5479C354.414 13.8044 350.467 9.85742 347.904 5.70703C345.381 1.55664 344.12 -3.34652 344.12 -9.00244C344.12 -16.8149 346.459 -22.9998 351.139 -27.5571C355.859 -32.1551 361.942 -34.4541 369.388 -34.4541C376.834 -34.4541 384.179 -32.2772 391.422 -27.9233L384.891 -12.2373C384.647 -12.3594 384.016 -12.6849 382.999 -13.2139C381.982 -13.7835 381.331 -14.1294 381.046 -14.2515C380.761 -14.4142 380.171 -14.6991 379.276 -15.106C378.381 -15.5535 377.75 -15.8587 377.384 -16.0215L375.736 -16.6318C373.945 -17.3236 372.216 -17.6694 370.548 -17.6694C368.92 -17.6694 367.618 -16.9167 366.642 -15.4111C365.706 -13.9463 365.238 -12.1559 365.238 -10.04C365.238 -7.96484 365.502 -6.23551 366.031 -4.85205C366.56 -3.46859 367.374 -2.18685 368.473 -1.00684C370.344 0.946289 372.643 2.81803 375.37 4.6084C380.781 8.27051 384.85 12.1361 387.577 16.2051C390.344 20.2334 391.727 25.0959 391.727 30.7925C391.727 39.2967 389.448 45.8275 384.891 50.3848C380.334 54.9014 373.844 57.1597 365.421 57.1597C357.039 57.1597 349.715 55.3896 343.448 51.8496V31.8301C352.319 37.6488 359.134 40.5581 363.895 40.5581Z" fill="white"/>
</svg>
