<svg width="40" height="40" viewBox="0 0 40 40" fill="none" xmlns="http://www.w3.org/2000/svg">
<path fill-rule="evenodd" clip-rule="evenodd" d="M20 -0.00011301C31.0457 -0.00011301 40 8.95416 40 20C40 31.0457 31.0457 40 20 40C8.95421 40 -0.00011301 31.0457 -0.00011301 20C-0.00011301 8.95416 8.95421 -0.00011301 20 -0.00011301Z" fill="#244263"/>
<path d="M27.884 12.804C27.32 13.056 26.696 13.23 26.012 13.326C26.348 13.134 26.636 12.882 26.876 12.57C27.128 12.258 27.314 11.91 27.434 11.526C26.822 11.91 26.138 12.174 25.382 12.318C25.094 11.994 24.74 11.742 24.32 11.562C23.912 11.382 23.48 11.292 23.024 11.292C22.436 11.292 21.896 11.442 21.404 11.742C20.912 12.03 20.522 12.42 20.234 12.912C19.946 13.404 19.802 13.944 19.802 14.532C19.802 14.82 19.826 15.066 19.874 15.27C18.554 15.198 17.312 14.862 16.148 14.262C15.008 13.674 14.03 12.882 13.214 11.886C12.926 12.402 12.782 12.942 12.782 13.506C12.782 14.058 12.908 14.574 13.16 15.054C13.424 15.522 13.778 15.906 14.222 16.206C13.694 16.194 13.208 16.056 12.764 15.792V15.846C12.764 16.626 13.004 17.31 13.484 17.898C13.976 18.486 14.6 18.858 15.356 19.014C15.092 19.086 14.804 19.122 14.492 19.122C14.276 19.122 14.078 19.104 13.898 19.068C14.102 19.716 14.48 20.25 15.032 20.67C15.584 21.078 16.208 21.288 16.904 21.3C16.352 21.744 15.728 22.086 15.032 22.326C14.348 22.566 13.634 22.686 12.89 22.686C12.734 22.686 12.494 22.674 12.17 22.65H12.116C13.616 23.61 15.272 24.09 17.084 24.09C18.512 24.09 19.826 23.814 21.026 23.262C22.13 22.746 23.09 22.026 23.906 21.102C24.662 20.238 25.25 19.254 25.67 18.15C26.066 17.082 26.264 16.002 26.264 14.91V14.478C26.9 14.022 27.44 13.464 27.884 12.804Z" fill="white"/>
</svg>
